<?xml version="1.0" standalone="no"?>
<!DOCTYPE svg PUBLIC "-//W3C//DTD SVG 20010904//EN"
 "http://www.w3.org/TR/2001/REC-SVG-20010904/DTD/svg10.dtd">
<svg version="1.0" xmlns="http://www.w3.org/2000/svg"
 width="1600.000000pt" height="1600.000000pt" viewBox="0 0 1600.000000 1600.000000"
 preserveAspectRatio="xMidYMid meet">
<metadata>
Created by potrace 1.11, written by Peter Selinger 2001-2013
</metadata>
<g transform="translate(0.000000,1600.000000) scale(0.100000,-0.100000)"
fill="#000000" stroke="none">
<path d="M7757 15364 c-1 -1 -74 -5 -162 -9 -88 -3 -176 -8 -195 -10 -19 -2
-75 -6 -125 -10 -49 -3 -97 -8 -105 -10 -8 -2 -44 -7 -80 -10 -83 -8 -119 -13
-265 -35 -33 -5 -78 -12 -100 -15 -440 -66 -1159 -271 -1570 -450 -393 -171
-651 -298 -864 -427 -34 -21 -65 -38 -67 -38 -6 0 -239 -146 -339 -213 -564
-378 -1126 -882 -1540 -1382 -28 -33 -52 -62 -55 -65 -71 -71 -400 -525 -524
-723 -65 -105 -186 -308 -186 -313 0 -2 -11 -22 -24 -43 -46 -73 -223 -426
-295 -590 -216 -489 -372 -976 -480 -1501 -16 -80 -32 -163 -35 -185 -4 -22
-11 -65 -16 -95 -9 -52 -15 -90 -25 -170 -3 -19 -7 -46 -10 -60 -2 -14 -7 -56
-10 -95 -4 -38 -8 -72 -10 -75 -1 -3 -6 -50 -10 -105 -4 -55 -9 -113 -11 -130
-21 -173 -21 -903 0 -1080 2 -16 7 -73 11 -125 3 -52 8 -102 10 -110 2 -8 6
-44 10 -80 3 -36 7 -76 10 -90 2 -14 11 -77 20 -140 16 -113 55 -328 79 -435
3 -11 14 -60 24 -110 11 -49 36 -151 56 -225 238 -907 651 -1763 1216 -2515
130 -173 148 -196 210 -270 19 -23 55 -65 80 -95 25 -29 50 -58 55 -64 6 -6
48 -54 95 -106 114 -127 391 -404 515 -514 55 -49 116 -103 135 -120 139 -125
473 -379 681 -518 454 -304 885 -532 1379 -730 345 -138 840 -289 1155 -352
17 -4 41 -9 55 -12 57 -12 338 -63 375 -68 138 -20 187 -26 240 -31 33 -3 69
-7 80 -10 11 -2 56 -7 100 -10 44 -4 96 -8 115 -10 214 -25 943 -25 1159 0 20
2 65 7 101 10 134 11 335 36 420 51 14 2 59 9 100 15 41 6 77 12 80 14 3 2 26
6 50 10 25 3 61 10 80 15 19 5 49 11 65 14 225 38 683 166 970 271 55 20 118
42 140 50 64 21 349 142 480 203 306 143 589 299 855 470 168 108 424 286 495
344 11 9 65 52 120 94 55 43 102 81 105 84 3 3 34 30 70 60 36 30 67 57 70 60
3 3 46 41 95 85 182 161 517 504 696 715 124 146 319 400 414 540 17 25 47 68
66 95 19 28 73 111 120 185 411 648 721 1370 909 2119 32 127 94 416 104 486
4 22 11 66 17 98 5 32 12 70 14 85 3 27 13 96 20 142 2 14 6 50 10 80 3 30 8
71 10 90 2 19 7 71 11 115 3 44 8 88 10 98 24 132 23 930 -1 1157 -2 19 -7 70
-10 113 -4 43 -8 86 -9 95 -2 9 -7 49 -11 87 -9 95 -53 388 -70 465 -3 14 -8
41 -11 60 -3 19 -21 105 -40 190 -298 1342 -978 2582 -1949 3555 -159 159
-260 255 -364 345 -35 30 -69 60 -75 65 -6 6 -49 42 -96 81 -772 639 -1716
1133 -2670 1398 -149 41 -312 83 -358 91 -19 3 -71 14 -115 24 -45 10 -98 22
-117 25 -19 3 -46 8 -60 11 -14 3 -41 8 -60 11 -19 3 -60 9 -90 14 -88 15
-168 26 -235 34 -122 14 -152 18 -175 21 -14 2 -61 7 -105 10 -44 4 -95 8
-113 10 -91 11 -716 27 -725 19z m633 -648 c74 -6 174 -15 240 -22 78 -8 121
-13 315 -40 129 -17 394 -69 565 -110 257 -62 706 -203 855 -269 17 -7 64 -27
105 -43 170 -68 419 -185 615 -290 1042 -558 1938 -1406 2552 -2417 375 -618
651 -1305 807 -2010 19 -88 38 -178 41 -200 4 -22 8 -47 10 -55 3 -8 7 -33 10
-55 3 -22 10 -62 15 -90 6 -27 13 -75 16 -105 3 -30 7 -62 9 -70 2 -8 7 -43
10 -78 4 -35 8 -72 10 -82 2 -10 7 -59 10 -107 4 -48 9 -106 11 -128 20 -243
20 -735 -1 -975 -1 -19 -6 -71 -9 -115 -4 -44 -9 -91 -11 -105 -3 -14 -7 -53
-10 -88 -4 -35 -8 -73 -10 -84 -3 -12 -9 -58 -15 -102 -6 -45 -14 -94 -17
-111 -3 -16 -6 -39 -8 -50 -6 -42 -57 -293 -72 -350 -8 -33 -17 -69 -19 -80
-2 -11 -6 -29 -8 -40 -36 -179 -222 -739 -311 -940 -7 -16 -36 -83 -65 -147
-65 -151 -193 -408 -259 -522 -28 -49 -51 -90 -51 -92 0 -9 -156 -260 -242
-389 -90 -134 -303 -424 -362 -494 -13 -14 -67 -78 -122 -141 -129 -151 -171
-197 -344 -370 -188 -188 -247 -242 -432 -397 -328 -275 -577 -446 -1058 -729
-52 -30 -398 -203 -480 -239 -47 -21 -103 -46 -125 -55 -358 -160 -953 -341
-1365 -416 -117 -21 -119 -21 -170 -28 -25 -3 -56 -8 -70 -11 -14 -3 -38 -7
-55 -9 -16 -2 -48 -7 -70 -10 -22 -4 -60 -8 -85 -11 -25 -3 -61 -7 -80 -10
-19 -2 -71 -7 -115 -10 -44 -3 -96 -8 -115 -10 -143 -16 -606 -22 -810 -10
-176 9 -367 24 -403 31 -10 2 -46 6 -80 9 -54 5 -105 13 -292 40 -22 3 -130
24 -239 46 -657 132 -1287 363 -1886 692 -684 375 -1308 880 -1821 1472 -52
61 -113 133 -134 160 -22 28 -42 52 -45 55 -3 3 -28 34 -55 70 -27 36 -52 67
-55 70 -8 7 -187 260 -237 335 -100 151 -175 277 -296 495 -322 585 -580 1313
-697 1970 -33 184 -32 181 -54 355 -44 348 -51 468 -51 860 0 354 7 475 41
780 13 122 45 329 69 455 3 14 7 39 10 55 88 458 274 1049 446 1413 21 45 39
85 39 88 0 10 179 364 226 446 113 199 184 314 297 483 57 85 225 318 260 361
9 10 61 75 117 144 151 186 214 254 440 481 194 194 297 290 435 404 33 27 62
52 65 55 11 13 230 181 315 242 688 495 1455 852 2270 1057 183 46 409 93 510
106 28 4 52 9 55 10 3 2 33 7 65 10 33 4 67 8 75 10 39 7 100 15 145 20 28 3
73 7 100 10 83 9 135 13 245 20 58 4 107 9 108 10 6 5 711 -3 782 -9z"/>
<path d="M7747 14094 c-1 -1 -58 -5 -127 -8 -69 -4 -147 -9 -175 -11 -113 -10
-182 -16 -210 -20 -16 -2 -50 -7 -75 -10 -25 -3 -54 -7 -65 -9 -11 -2 -45 -7
-75 -11 -149 -19 -445 -81 -647 -136 -904 -243 -1752 -703 -2458 -1332 -91
-82 -351 -340 -441 -438 -641 -700 -1124 -1586 -1369 -2514 -15 -55 -29 -108
-31 -118 -2 -10 -6 -26 -8 -35 -23 -72 -94 -465 -111 -617 -3 -27 -8 -63 -10
-80 -40 -269 -51 -927 -20 -1190 2 -16 6 -61 10 -100 3 -38 8 -83 10 -100 3
-16 7 -50 10 -75 5 -44 38 -260 50 -330 4 -19 22 -105 41 -191 192 -871 574
-1687 1123 -2396 169 -219 280 -344 515 -578 223 -222 275 -269 480 -433 583
-468 1228 -816 1941 -1046 121 -39 441 -126 515 -140 14 -3 83 -16 155 -31
144 -28 147 -29 260 -45 107 -15 144 -21 165 -25 9 -2 52 -6 96 -10 43 -4 95
-8 114 -10 261 -26 857 -26 1055 0 17 2 62 6 102 10 39 3 82 8 95 10 13 2 46
6 73 10 646 83 1338 298 1925 598 233 120 481 265 653 384 121 84 159 111 250
180 1060 798 1830 1926 2185 3203 61 217 125 516 148 686 3 27 7 51 9 54 2 3
6 34 10 70 4 36 8 72 10 80 2 8 6 51 10 95 4 44 9 91 11 105 24 206 24 927 -1
1060 -1 8 -6 51 -9 95 -4 44 -9 87 -11 95 -2 8 -7 40 -10 70 -4 30 -9 67 -11
83 -2 15 -6 42 -9 60 -6 44 -17 108 -22 132 -2 11 -6 31 -9 45 -63 333 -160
679 -275 989 -181 486 -455 998 -758 1416 -73 100 -220 292 -246 319 -6 6 -23
27 -39 46 -150 184 -518 551 -725 724 -357 297 -714 538 -1096 737 -141 73
-364 178 -465 219 -163 65 -219 87 -330 127 -203 72 -614 186 -785 217 -16 3
-55 10 -85 16 -30 6 -68 12 -85 15 -16 3 -46 8 -65 11 -79 14 -106 18 -195 29
-94 12 -110 14 -180 20 -38 3 -88 8 -110 10 -120 13 -667 28 -678 19z m603
-648 c19 -2 69 -7 112 -11 42 -3 87 -8 100 -10 12 -2 46 -6 73 -10 28 -3 77
-10 110 -15 33 -5 78 -12 100 -16 57 -8 265 -51 365 -75 1112 -265 2140 -906
2878 -1794 124 -150 342 -445 342 -463 0 -6 4 -12 8 -14 8 -3 113 -168 165
-258 144 -252 278 -530 358 -743 17 -45 37 -95 44 -112 43 -99 188 -599 208
-720 3 -16 11 -55 17 -85 6 -30 13 -66 15 -80 2 -14 6 -34 8 -45 5 -21 16 -92
22 -135 2 -14 6 -43 9 -65 3 -22 8 -62 11 -90 3 -27 7 -64 9 -80 2 -17 7 -75
11 -130 4 -55 9 -118 11 -140 5 -53 4 -525 -1 -595 -10 -150 -17 -227 -20
-250 -2 -14 -6 -50 -9 -80 -14 -135 -55 -382 -92 -540 -14 -63 -29 -131 -34
-150 -47 -219 -186 -617 -317 -910 -39 -88 -176 -356 -213 -416 -22 -36 -40
-68 -40 -71 0 -3 -37 -65 -82 -137 -154 -244 -361 -521 -547 -730 -285 -321
-646 -637 -1016 -888 -110 -75 -358 -228 -368 -228 -4 0 -30 -14 -59 -31 -202
-120 -618 -302 -903 -394 -235 -76 -621 -171 -775 -191 -19 -2 -46 -7 -60 -9
-14 -3 -43 -7 -65 -10 -22 -3 -49 -7 -60 -9 -11 -2 -49 -7 -85 -11 -36 -3 -72
-8 -80 -10 -8 -2 -62 -7 -120 -11 -58 -3 -127 -8 -155 -10 -68 -5 -541 -5
-585 0 -19 2 -80 7 -135 11 -55 4 -113 9 -130 11 -16 2 -52 6 -80 9 -82 10
-129 16 -155 20 -14 2 -45 7 -70 10 -25 4 -67 11 -95 16 -27 6 -61 12 -75 15
-285 52 -765 195 -1005 299 -16 7 -75 32 -130 56 -122 52 -404 195 -540 273
-94 54 -463 296 -488 320 -7 6 -37 29 -67 51 -61 44 -270 217 -339 280 -441
401 -813 863 -1093 1360 -96 170 -170 318 -249 500 -22 50 -44 99 -48 110 -76
171 -211 592 -256 795 -20 87 -75 376 -80 415 -3 28 -8 57 -10 65 -4 16 -11
69 -21 165 -3 33 -7 71 -10 85 -26 159 -26 803 0 1045 2 17 7 62 11 100 4 39
9 78 10 87 2 9 11 68 20 130 9 62 20 131 25 153 5 22 12 56 15 75 3 19 17 85
31 145 261 1137 886 2160 1789 2925 108 91 357 276 500 372 79 52 284 178 291
178 2 0 23 12 46 26 67 43 363 188 513 252 249 106 529 201 770 261 141 35
300 71 335 76 14 2 63 10 110 19 97 17 115 20 384 51 22 3 85 8 140 11 56 3
103 8 104 9 6 5 652 -3 692 -9z"/>
<path d="M6480 8475 l0 -3130 1917 0 1918 0 0 385 0 385 -1492 3 -1493 2 0
2743 0 2743 -425 0 -425 -1 0 -3130z"/>
</g>
</svg>
